<svg aria-hidden="true" style="width:0;height:0;position:absolute;overflow:hidden" xmlns="http://www.w3.org/2000/svg"><defs><symbol id="icon-close" viewBox="0 0 32 32"><path d="M30.354 32a1.646 1.646 0 0 0 1.162-2.81L2.812.481A1.647 1.647 0 0 0 .483 2.81l28.708 28.708c.322.32.743.484 1.164.484z"/><path d="M1.644 32c.421 0 .843-.16 1.164-.484L31.517 2.81A1.647 1.647 0 0 0 29.188.481L.479 29.19a1.645 1.645 0 0 0 1.164 2.809z"/></symbol><symbol id="icon-menu" viewBox="0 0 60 32"><path d="M2 0h56a2 2 0 1 1 0 4H2a2 2 0 1 1 0-4zM2 14h56a2 2 0 1 1 0 4H2a2 2 0 1 1 0-4zM2 28h56a2 2 0 1 1 0 4H2a2 2 0 1 1 0-4z"/></symbol><symbol id="icon-star" viewBox="0 0 34 32"><path fill="none" stroke="#ab816c" style="stroke:var(--color1,#ab816c)" stroke-width="1.684" d="m17.502 3.048 2.509 7.727a2.532 2.532 0 0 0 2.403 1.747h8.125a.842.842 0 0 1 .497 1.521l-.002.002-6.573 4.775a2.527 2.527 0 0 0-.911 2.842l-.005-.018 2.509 7.727a.842.842 0 0 1-1.3.94l.002.002-6.572-4.775c-.411-.301-.927-.482-1.485-.482s-1.074.181-1.492.487l.007-.005-6.572 4.775a.842.842 0 0 1-1.295-.949l-.002.006 2.509-7.725a2.524 2.524 0 0 0-.909-2.82l-.007-.005-6.572-4.773a.841.841 0 0 1 .495-1.522h8.123a2.527 2.527 0 0 0 2.398-1.729l.005-.018 2.509-7.725a.844.844 0 0 1 1.6-.006l.002.006z"/></symbol><symbol id="icon-star-full" viewBox="0 0 34 32"><path fill="#ab816c" style="fill:var(--color1,#ab816c)" d="M15.24 1.561c.505-1.551 2.7-1.551 3.203 0l2.558 7.872c.227.68.857 1.162 1.6 1.162h8.278c1.632 0 2.309 2.088.99 3.048l-6.696 4.864a1.683 1.683 0 0 0-.608 1.895l-.003-.012 2.557 7.872c.505 1.553-1.272 2.843-2.592 1.883l-6.695-4.864a1.68 1.68 0 0 0-1.985.003l.005-.003-6.696 4.864c-1.319.96-3.096-.332-2.59-1.883l2.557-7.872a1.682 1.682 0 0 0-.607-1.88l-.005-.003-6.696-4.864c-1.319-.96-.64-3.048.99-3.048h8.276c.744 0 1.374-.482 1.598-1.15l.003-.012 2.56-7.872z"/></symbol><symbol id="icon-star-gold" viewBox="0 0 34 32"><path fill="gold" d="M15.24 1.561c.505-1.551 2.7-1.551 3.203 0l2.558 7.872c.227.68.857 1.162 1.6 1.162h8.278c1.632 0 2.309 2.088.99 3.048l-6.696 4.864a1.683 1.683 0 0 0-.608 1.895l-.003-.012 2.557 7.872c.505 1.553-1.272 2.843-2.592 1.883l-6.695-4.864a1.68 1.68 0 0 0-1.985.003l.005-.003-6.696 4.864c-1.319.96-3.096-.332-2.59-1.883l2.557-7.872a1.682 1.682 0 0 0-.607-1.88l-.005-.003-6.696-4.864c-1.319-.96-.64-3.048.99-3.048h8.276c.744 0 1.374-.482 1.598-1.15l.003-.012 2.56-7.872z"/></symbol><symbol id="icon-previous" viewBox="0 0 1120 32"><path fill="none" stroke="#ab816c" style="stroke:var(--color1,#ab816c)" stroke-width="32" d="M1120 16H0"/></symbol><symbol id="icon-facebook" viewBox="0 0 32 32"><path d="M22.512.006 18.896 0c-4.064 0-6.69 3.092-6.69 7.876v3.63H8.568c-.314 0-.568.294-.568.654v5.26c0 .36.254.652.568.652h3.638v13.276c0 .36.254.652.568.652h4.746c.314 0 .568-.292.568-.652V18.072h4.252c.314 0 .568-.292.568-.652l.002-5.26c0-.174-.06-.34-.166-.462a.535.535 0 0 0-.402-.192h-4.254V8.428c0-1.48.308-2.23 1.986-2.23h2.438c.314 0 .568-.294.568-.654V.66c0-.36-.254-.652-.568-.654z"/></symbol><symbol id="icon-instagram" viewBox="0 0 32 32"><path d="M16.316 32h-.32l-.461.001c-2.329 0-4.64-.072-6.933-.212l.314.015c-2.066-.126-3.952-.84-5.454-2.064-1.45-1.182-2.44-2.78-2.942-4.75-.44-1.716-.46-3.4-.484-5.026C.02 18.794.004 17.41 0 16.004c.004-1.414.02-2.8.036-3.968.022-1.628.046-3.31.484-5.026.5-1.97 1.492-3.568 2.94-4.75C4.966 1.036 6.852.32 8.92.196c2.252-.138 4.57-.2 7.084-.196l.443-.001c2.335 0 4.653.071 6.952.212l-.316-.015c2.066.124 3.952.84 5.454 2.064 1.45 1.182 2.44 2.78 2.944 4.75.436 1.716.46 3.4.48 5.026.018 1.17.034 2.554.038 3.96v.006c-.004 1.408-.02 2.792-.036 3.96-.022 1.63-.046 3.312-.482 5.028-.504 1.97-1.494 3.568-2.944 4.75-1.502 1.224-3.388 1.94-5.454 2.064-1.968.125-4.268.196-6.585.196h-.193.01zm-.32-2.5.48.001c2.271 0 4.526-.069 6.763-.206l-.307.015c1.56-.096 2.916-.602 4.026-1.508 1.026-.836 1.734-1.99 2.1-3.43.364-1.428.386-2.96.406-4.444.016-1.16.032-2.534.036-3.928-.004-1.394-.02-2.768-.036-3.93-.02-1.48-.04-3.014-.406-4.44-.368-1.44-1.074-2.596-2.1-3.432-1.11-.906-2.464-1.412-4.026-1.508-1.93-.122-4.186-.191-6.457-.191l-.5.001h.026l-.485-.001c-2.269 0-4.522.069-6.756.206l.307-.015c-1.56.096-2.916.602-4.026 1.508-1.026.836-1.734 1.99-2.1 3.43-.364 1.428-.386 2.96-.406 4.442a364.21 364.21 0 0 0-.036 3.932c.004 1.39.02 2.766.036 3.926.02 1.484.04 3.016.406 4.444.366 1.44 1.074 2.594 2.1 3.43 1.11.906 2.464 1.412 4.026 1.508 2.2.134 4.468.196 6.928.19zm-.06-5.688A7.82 7.82 0 0 1 8.126 16a7.82 7.82 0 0 1 7.814-7.812A7.82 7.82 0 0 1 23.75 16a7.82 7.82 0 0 1-7.812 7.812zm0-13.124A5.32 5.32 0 0 0 10.626 16a5.32 5.32 0 0 0 5.314 5.312A5.32 5.32 0 0 0 21.25 16a5.32 5.32 0 0 0-5.312-5.312zm8.69-5-.061-.001a1.876 1.876 0 0 0 0 3.752l.064-.001h-.003a1.877 1.877 0 0 0 .003-3.75h-.003z"/></symbol><symbol id="icon-twitter" viewBox="0 0 32 32"><path d="M32 5.44c-1.097.551-2.37.957-3.712 1.152l-.068.008c1.36-.908 2.398-2.336 2.886-4.054a12.155 12.155 0 0 1-4.077 1.758l-.083.016C25.742 2.888 24.026 2 22.154 2c-3.632 0-6.556 3.296-6.556 7.336 0 .58.044 1.14.152 1.672-5.454-.298-10.28-3.22-13.522-7.672a7.953 7.953 0 0 0-.898 3.697v.011-.001c0 2.54 1.17 4.79 2.914 6.094a5.942 5.942 0 0 1-2.988-.918l.024.014v.08c0 3.566 2.274 6.526 5.256 7.208a5.94 5.94 0 0 1-1.72.24c-.42 0-.844-.026-1.242-.124.85 2.904 3.262 5.04 6.13 5.108-2.232 1.952-5.066 3.128-8.134 3.128-.538 0-1.054-.028-1.57-.1 2.906 2.094 6.35 3.29 10.064 3.29 12.072 0 18.672-11.18 18.672-20.868 0-.324-.01-.638-.024-.948a14.157 14.157 0 0 0 3.253-3.744L32 5.439z"/></symbol><symbol id="icon-toque" viewBox="0 0 32 32"><path fill="#674d40" style="fill:var(--color2,#674d40)" d="M23.048 8.572a.404.404 0 0 1-.304-.144v-.001a.529.529 0 0 1-.125-.343v-.005c-.033-1.889-.712-3.689-1.888-5.011s-2.757-2.063-4.404-2.063-3.228.741-4.404 2.063c-1.178 1.322-1.855 3.122-1.888 5.011a.532.532 0 0 1-.125.348.406.406 0 0 1-.304.145.405.405 0 0 1-.303-.144l-.001-.001a.528.528 0 0 1-.127-.345v-.004c.029-2.154.796-4.209 2.134-5.722C12.649.847 14.45-.002 16.327-.002c1.879 0 3.681.847 5.02 2.359 1.338 1.51 2.104 3.566 2.132 5.72a.532.532 0 0 1-.125.348.404.404 0 0 1-.303.145z"/><path fill="#674d40" style="fill:var(--color2,#674d40)" d="M24.302 19.732a.4.4 0 0 1-.304-.143v-.001a.525.525 0 0 1-.128-.346v-.001c0-.132.044-.256.124-.351a.404.404 0 0 1 .303-.146c1.637-.012 3.205-.759 4.366-2.083 1.162-1.322 1.824-3.116 1.846-4.995-.017-1.896-.687-3.707-1.866-5.037s-2.769-2.068-4.422-2.054c-.635 0-1.266.106-1.873.32a.378.378 0 0 1-.326-.042l.002.001a.486.486 0 0 1-.207-.286l-.001-.003a.545.545 0 0 1 .031-.375l-.001.003a.457.457 0 0 1 .25-.243 6.264 6.264 0 0 1 2.118-.361h.008c1.882-.014 3.69.828 5.03 2.342s2.102 3.578 2.118 5.734c-.023 2.138-.774 4.179-2.095 5.687-1.32 1.508-3.104 2.362-4.966 2.377h-.005zm-15.956 0h-.004c-1.864-.015-3.647-.869-4.966-2.377-1.322-1.508-2.075-3.549-2.095-5.687.017-2.157.778-4.22 2.118-5.734s3.149-2.356 5.03-2.342a6.383 6.383 0 0 1 2.125.362.42.42 0 0 1 .15.09.48.48 0 0 1 .106.146l.001.003a.545.545 0 0 1-.048.552l.001-.002a.437.437 0 0 1-.13.12l-.002.001a.39.39 0 0 1-.333.031l.003.001a5.518 5.518 0 0 0-1.867-.319h-.007c-1.651-.013-3.242.724-4.421 2.054s-1.851 3.141-1.866 5.037c.02 1.879.684 3.672 1.844 4.995 1.162 1.324 2.73 2.071 4.367 2.083.06.001.116.015.166.039l-.002-.001a.45.45 0 0 1 .14.108.555.555 0 0 1-.005.698l.001-.001a.43.43 0 0 1-.138.105l-.003.001a.38.38 0 0 1-.164.037z"/><path fill="#674d40" style="fill:var(--color2,#674d40)" d="M24.302 32H8.346a.404.404 0 0 1-.304-.144l-.001-.001a.529.529 0 0 1-.125-.343V19.238c0-.131.045-.256.125-.349a.403.403 0 0 1 .304-.143c.114 0 .223.051.303.143a.53.53 0 0 1 .125.349v11.773h15.098V19.238c0-.131.045-.256.125-.349a.403.403 0 0 1 .304-.143c.114 0 .223.051.303.143a.533.533 0 0 1 .127.349v12.268a.528.528 0 0 1-.127.348.404.404 0 0 1-.303.145z"/><path fill="#674d40" style="fill:var(--color2,#674d40)" d="M27.293 27.222H11.338a.404.404 0 0 1-.304-.144l-.001-.001a.529.529 0 0 1-.125-.343v-.006c0-.131.045-.256.125-.348a.406.406 0 0 1 .304-.145h15.955a.4.4 0 0 1 .305.145.528.528 0 0 1 .125.348.534.534 0 0 1-.125.349.406.406 0 0 1-.304.145z"/></symbol><symbol id="icon-people" viewBox="0 0 32 32"><path fill="#674d40" style="fill:var(--color2,#674d40)" d="M11.887 0C8.594 0 5.913 3.077 5.913 6.856s2.682 6.856 5.975 6.856 5.975-3.077 5.975-6.856S15.18 0 11.888 0zm0 12.562c-2.749 0-4.979-2.566-4.979-5.714 0-3.146 2.236-5.713 4.979-5.713 2.749 0 4.979 2.566 4.979 5.713 0 3.149-2.236 5.714-4.979 5.714zm12.238-9.717c-2.474 0-4.484 2.307-4.484 5.146s2.01 5.146 4.484 5.146c2.476 0 4.485-2.307 4.485-5.146s-2.01-5.146-4.485-5.146zm0 9.155c-1.924 0-3.488-1.795-3.488-4.003s1.564-4.003 3.488-4.003c1.925 0 3.489 1.795 3.489 4.003S26.05 12 24.125 12z"/><path fill="#674d40" style="fill:var(--color2,#674d40)" d="M32.148 20.678c-.452-3.126-2.145-5.761-5.029-7.142 0 0-1.276 1.107-2.994 1.073-1.875-.042-2.994-1.073-2.994-1.073s-1.393.596-2.516 1.837c-1.039-1.059-2.793-1.92-2.793-1.92s-1.606 1.402-3.941 1.38c-2.45-.02-3.928-1.381-3.928-1.381s-5.298 2.089-6.415 9.176c0 0-1.198 3.757 1.576 9.372h17.554s1.247-2.488 1.467-4.003h8.731c2.145-3.73 1.284-7.319 1.284-7.319zM20.05 30.857H3.73c-2.131-4.646-1.21-8.04-1.21-8.04.52-3.555 2.511-6.554 5.359-8.077 1.123.773 2.513 1.235 4.011 1.235s2.888-.462 4.035-1.251l-.024.016c2.848 1.523 4.838 4.522 5.359 8.077-.006 0 .879 4.178-1.211 8.04zm10.235-4.003h-7.949c.305-2.019-.099-4.227-.099-4.227-.36-2.496-1.386-4.746-2.89-6.484a7.21 7.21 0 0 1 1.669-1.3l.036-.019c.863.58 1.926.925 3.07.925s2.207-.345 3.09-.938l-.02.013c2.108 1.157 3.588 3.393 3.972 6.043 0 0 .727 2.833-.879 5.987z"/></symbol><symbol id="icon-clock" viewBox="0 0 32 32"><path fill="#674d40" style="fill:var(--color2,#674d40)" d="M16 0C7.177 0 0 7.177 0 16c0 8.822 7.177 16 16 16 8.822 0 16-7.178 16-16 0-8.823-7.178-16-16-16zm0 30.934c-8.234 0-14.934-6.7-14.934-14.934S7.766 1.066 16 1.066 30.934 7.766 30.934 16 24.234 30.934 16 30.934z"/><path fill="#674d40" style="fill:var(--color2,#674d40)" d="M16.534 13.878V8.469a.534.534 0 1 0-1.068 0v5.409a2.14 2.14 0 0 0-1.52 1.51l-.003.015h-3.809l-.026-.001a.534.534 0 1 0 0 1.068l.027-.001h-.001 3.809a2.13 2.13 0 0 0 2.057 1.6 2.134 2.134 0 0 0 2.134-2.132c0-.992-.684-1.819-1.6-2.058zM16 17.002a1.067 1.067 0 0 1 .002-2.136h.001a1.067 1.067 0 0 1-.002 2.136H16zm0-11.734a.533.533 0 0 0 .534-.532v-.534a.534.534 0 1 0-1.068 0v.534c0 .294.239.532.534.532zm0 21.334a.534.534 0 0 0-.534.534v.532a.534.534 0 1 0 1.068 0v-.532a.534.534 0 0 0-.534-.534zm11.734-11.2H27.2l-.026-.001a.534.534 0 1 0 0 1.068l.027-.001H27.2h.534l.026.001a.534.534 0 1 0 0-1.068l-.027.001h.001zm-22.934 0h-.534a.533.533 0 0 0 0 1.066H4.8l.026.001a.534.534 0 1 0 0-1.068l-.027.001H4.8zm19.119-8.141-.378.378a.535.535 0 0 0 .756.754l.376-.378a.533.533 0 0 0-.754-.754zM7.703 23.478l-.376.378a.533.533 0 0 0 .754.754l.378-.378a.535.535 0 0 0-.756-.754zm16.594 0a.534.534 0 1 0-.756.756l.378.376a.531.531 0 0 0 .756 0 .53.53 0 0 0 0-.756l-.378-.376zM8.081 7.261a.534.534 0 1 0-.756.756l.378.376a.53.53 0 0 0 .756 0 .53.53 0 0 0 0-.756l-.378-.376z"/></symbol><symbol id="icon-talk" viewBox="0 0 32 32"><path fill="#674d40" style="fill:var(--color2,#674d40)" d="M24.621 14.939c0-6.705-6.161-11.099-12.311-11.099C6.135 3.84 0 8.256 0 14.939c0 2.529.965 5.002 2.719 6.963a.331.331 0 0 1 .066.3l.001-.002c-.55 2.314-1.855 4.403-2.39 5.197a.882.882 0 0 0-.069.854l-.002-.006c.12.271.357.438.621.438h.018c2.619-.074 5.654-.922 7.529-3.039a.244.244 0 0 1 .254-.077h-.002c1.152.312 2.353.472 3.566.472 6.173 0 12.311-4.415 12.311-11.1zM8.96 24.52a1.097 1.097 0 0 0-1.124.355l-.001.002c-1.876 2.116-4.94 2.598-6.39 2.705.663-1.05 1.74-2.976 2.245-5.1a1.514 1.514 0 0 0-.319-1.353l.002.002C1.779 19.349.937 17.208.937 14.938c0-5.527 5.102-10.022 11.373-10.022 6.272 0 11.373 4.495 11.373 10.022S18.582 24.962 12.31 24.962h-.016c-1.186 0-2.334-.162-3.423-.464l.09.021z"/><path fill="#674d40" style="fill:var(--color2,#674d40)" d="M27.635 23.875C30.368 22.29 32 19.59 32 16.651c0-4.154-3.273-7.703-7.782-8.439-.256-.042-.494.163-.53.456-.037.294.141.567.397.609 4.045.659 6.979 3.761 6.979 7.374 0 2.525-1.44 4.867-3.85 6.264-.47.273-.721.873-.611 1.462.228 1.233.714 2.373 1.103 3.146-2.767-.529-3.817-2.052-4.148-2.711-.205-.408-.589-.66-1.001-.66h-.038c-.52 0-1.041-.041-1.546-.123-.256-.041-.494.164-.53.458s.142.566.399.607c.55.09 1.114.134 1.677.134h.038a.21.21 0 0 1 .188.122c1.27 2.524 4.188 3.168 5.385 3.328.264.035.515-.102.655-.362a.86.86 0 0 0-.006-.839l.002.004c-.361-.644-1.004-1.933-1.262-3.328a.265.265 0 0 1 .115-.277l.001-.001zM5.016 13.015c-.896 0-1.626.837-1.626 1.865s.73 1.864 1.626 1.864c.896 0 1.626-.836 1.626-1.864s-.73-1.865-1.626-1.865zm0 2.653c-.379 0-.687-.355-.687-.788 0-.435.307-.788.687-.788.379 0 .687.353.687.788s-.308.788-.687.788zm4.635-2.653c-.896 0-1.626.837-1.626 1.865s.73 1.864 1.626 1.864c.896 0 1.624-.836 1.624-1.864s-.73-1.865-1.626-1.865zm0 2.653c-.379 0-.687-.355-.687-.788 0-.435.307-.788.687-.788.379 0 .686.353.686.788s-.307.788-.686.788zm4.634-2.653c-.896 0-1.624.837-1.624 1.865s.73 1.864 1.626 1.864c.896 0 1.624-.836 1.624-1.864s-.73-1.865-1.626-1.865zm0 2.653c-.379 0-.687-.355-.687-.788 0-.435.308-.788.687-.788s.687.353.687.788c0 .435-.307.788-.687.788zm4.635-2.653c-.896 0-1.626.837-1.626 1.865s.73 1.864 1.626 1.864c.896 0 1.626-.836 1.626-1.864s-.73-1.865-1.626-1.865zm0 2.653c-.379 0-.687-.355-.687-.788 0-.435.308-.788.687-.788s.687.353.687.788c0 .435-.308.788-.687.788z"/></symbol><symbol id="icon-rate4" viewBox="0 0 173 32"><path fill="#ab816c" style="fill:var(--color1,#ab816c)" d="M14.249 4.68c.384-1.179 2.052-1.179 2.435 0l1.907 5.873c.172.517.652.883 1.217.883h6.175c1.242 0 1.756 1.587.753 2.317l-4.995 3.629a1.279 1.279 0 0 0-.462 1.44l-.003-.009 1.907 5.871c.384 1.18-.966 2.161-1.97 1.431l-4.995-3.629a1.276 1.276 0 0 0-1.508.003l.004-.003-4.996 3.629c-1.002.73-2.353-.251-1.97-1.431l1.907-5.871a1.278 1.278 0 0 0-.46-1.428l-.004-.003-4.996-3.629c-1.002-.73-.486-2.317.753-2.317h6.175c.565 0 1.044-.366 1.213-.874l.003-.009 1.908-5.873z"/><path fill="none" stroke="#ab816c" style="stroke:var(--color1,#ab816c)" stroke-width="1.28" d="M156.724 4.877a.641.641 0 0 1 1.216-.004l.001.005 1.908 5.873a1.918 1.918 0 0 0 1.825 1.327h6.175a.64.64 0 0 1 .378 1.156l-.002.001-4.996 3.629a1.922 1.922 0 0 0-.694 2.16l-.004-.014 1.908 5.873a.64.64 0 0 1-.986.714l.002.001-4.996-3.629c-.312-.229-.704-.367-1.128-.367s-.816.137-1.134.37l.005-.004-4.995 3.629a.64.64 0 0 1-.985-.722l-.001.005 1.908-5.871a1.921 1.921 0 0 0-.692-2.143l-.005-.004-4.995-3.629a.64.64 0 0 1 .376-1.157h6.173c.849 0 1.569-.55 1.822-1.314l.004-.014 1.907-5.871z"/><path fill="#ab816c" style="fill:var(--color1,#ab816c)" d="M120.649 4.68c.384-1.179 2.052-1.179 2.435 0l1.907 5.873c.172.517.652.883 1.217.883h6.175c1.24 0 1.756 1.587.753 2.317l-4.995 3.629a1.279 1.279 0 0 0-.462 1.44l-.003-.009 1.907 5.871c.384 1.18-.966 2.161-1.97 1.431l-4.995-3.629a1.276 1.276 0 0 0-1.508.003l.004-.003-4.996 3.629c-1.004.73-2.353-.251-1.97-1.431l1.908-5.871a1.278 1.278 0 0 0-.461-1.429l-.004-.003-4.996-3.629c-1.002-.73-.486-2.317.753-2.317h6.175c.565 0 1.044-.366 1.213-.874l.003-.009 1.908-5.873zm-35.466 0c.384-1.179 2.052-1.179 2.435 0l1.907 5.873c.172.517.652.883 1.217.883h6.175c1.24 0 1.756 1.587.753 2.317l-4.995 3.629a1.279 1.279 0 0 0-.463 1.44l-.003-.009 1.907 5.871c.384 1.18-.965 2.161-1.969 1.431l-4.995-3.629a1.276 1.276 0 0 0-1.509.002l.004-.003-4.995 3.629c-1.004.73-2.353-.251-1.97-1.431l1.907-5.871a1.278 1.278 0 0 0-.461-1.429l-.004-.003-4.995-3.629c-1.004-.73-.486-2.317.753-2.317h6.173a1.28 1.28 0 0 0 1.214-.874l.003-.009 1.907-5.873zm-35.468 0c.384-1.179 2.052-1.179 2.436 0l1.907 5.873c.172.517.652.883 1.217.883h6.175c1.239 0 1.755 1.587.751 2.317l-4.995 3.629a1.279 1.279 0 0 0-.462 1.44l-.003-.009 1.907 5.871c.384 1.18-.966 2.161-1.969 1.431l-4.996-3.629a1.276 1.276 0 0 0-1.508.003l.004-.003-4.995 3.629c-1.004.73-2.354-.251-1.971-1.431l1.908-5.871a1.278 1.278 0 0 0-.461-1.429l-.004-.003-4.995-3.629c-1.004-.73-.488-2.317.753-2.317h6.173a1.28 1.28 0 0 0 1.214-.874l.003-.009 1.907-5.873z"/></symbol><symbol id="icon-rate5" viewBox="0 0 181 32"><path fill="#ab816c" style="fill:var(--color1,#ab816c)" d="M14.732 3.903c.4-1.228 2.137-1.228 2.536 0l2.025 6.232c.179.538.678.92 1.267.92h6.553c1.292 0 1.828 1.653.784 2.413l-5.301 3.851a1.331 1.331 0 0 0-.481 1.5l-.003-.009 2.024 6.232c.4 1.229-1.007 2.251-2.051 1.491l-5.301-3.851a1.334 1.334 0 0 0-1.572.002l.004-.003-5.301 3.851c-1.044.76-2.451-.263-2.051-1.491l2.024-6.232a1.332 1.332 0 0 0-.481-1.488l-.004-.003-5.301-3.851c-1.044-.76-.507-2.413.784-2.413h6.552c.589 0 1.088-.381 1.265-.911l.003-.009 2.025-6.232zm149.333 0c.399-1.228 2.137-1.228 2.536 0l2.025 6.232c.179.539.679.92 1.268.92h6.552c1.292 0 1.828 1.653.784 2.413l-5.301 3.851a1.331 1.331 0 0 0-.481 1.5l-.003-.009 2.024 6.232c.4 1.229-1.007 2.251-2.051 1.491l-5.301-3.851a1.334 1.334 0 0 0-1.572.002l.004-.003-5.301 3.851c-1.044.76-2.451-.263-2.051-1.491l2.024-6.232a1.332 1.332 0 0 0-.481-1.488l-.004-.003-5.301-3.851c-1.044-.76-.508-2.413.784-2.413h6.552c.589 0 1.088-.381 1.265-.911l.003-.009 2.025-6.232zm-37.333 0c.4-1.228 2.137-1.228 2.536 0l2.025 6.232c.179.538.678.92 1.267.92h6.553c1.292 0 1.828 1.653.784 2.413l-5.301 3.851a1.331 1.331 0 0 0-.481 1.5l-.003-.009 2.024 6.232c.4 1.229-1.007 2.251-2.051 1.491l-5.301-3.851a1.334 1.334 0 0 0-1.572.002l.004-.003-5.301 3.851c-1.044.76-2.451-.263-2.051-1.491l2.024-6.232a1.332 1.332 0 0 0-.481-1.488l-.004-.003-5.301-3.851c-1.045-.76-.507-2.413.784-2.413h6.552c.589 0 1.088-.381 1.265-.911l.003-.009 2.025-6.232zm-37.333 0c.4-1.228 2.137-1.228 2.536 0l2.025 6.232c.179.538.678.92 1.267.92h6.553c1.292 0 1.829 1.653.784 2.413l-5.301 3.851a1.331 1.331 0 0 0-.481 1.5l-.003-.009 2.024 6.232c.4 1.229-1.007 2.251-2.051 1.491l-5.301-3.851a1.334 1.334 0 0 0-1.572.002l.004-.003-5.301 3.851c-1.044.76-2.451-.263-2.051-1.491l2.024-6.232a1.332 1.332 0 0 0-.481-1.488l-.004-.003-5.301-3.851c-1.044-.76-.507-2.413.784-2.413h6.552c.589 0 1.088-.381 1.265-.911l.003-.009 2.025-6.232zm-37.334 0c.4-1.228 2.137-1.228 2.536 0l2.025 6.232c.179.538.678.92 1.267.92h6.553c1.292 0 1.828 1.653.784 2.413l-5.301 3.851a1.331 1.331 0 0 0-.481 1.5l-.003-.009 2.024 6.232c.4 1.229-1.007 2.251-2.051 1.491l-5.301-3.851a1.334 1.334 0 0 0-1.572.002l.004-.003-5.3 3.851c-1.045.76-2.452-.263-2.053-1.491l2.027-6.232a1.332 1.332 0 0 0-.482-1.488l-.004-.003-5.301-3.851c-1.045-.76-.507-2.413.784-2.413h6.552c.589 0 1.088-.381 1.265-.911l.003-.009 2.025-6.232z"/></symbol><symbol id="icon-phone" viewBox="0 0 32 32"><path d="M29.43 20.47h-.033c-2.027 0-3.978-.324-5.805-.924l.131.037c-.894-.295-1.991-.025-2.535.519l-3.599 2.649c-4.172-2.171-6.742-4.677-8.938-8.711l2.634-3.414a2.48 2.48 0 0 0 .638-2.555c-.577-1.653-.911-3.559-.911-5.543v-.026.001C11.01 1.122 9.855 0 8.442 0H2.566C1.151 0-.001 1.122-.001 2.503c0 15.815 13.201 28.682 29.43 28.682 1.415 0 2.567-1.122 2.567-2.503v-5.711c0-1.378-1.152-2.501-2.567-2.501z"/></symbol><symbol id="icon-location" viewBox="0 0 23 32"><path d="M11.733 0c6.47 0 11.733 5.131 11.733 11.435 0 2.496-.811 4.866-2.34 6.854l-8.67 11.381c-.021.026-.055.036-.079.062a.886.886 0 0 1-1.364-.062l-.002-.002c-2.498-3.245-7.074-9.308-8.832-11.595l-.004-.004-.011-.013a11.071 11.071 0 0 1-2.165-6.605v-.017.001C-.001 5.131 5.262 0 11.732 0zm0 17.604c3.484 0 6.33-2.773 6.33-6.17 0-3.394-2.846-6.17-6.33-6.17s-6.33 2.773-6.33 6.17c0 3.394 2.846 6.17 6.33 6.17z"/></symbol><symbol id="icon-logo" viewBox="0 0 72 32"><path d="M42.45 15.997c0 .261-.008.521 0 .783.089 2.653-.739 5.043-2.069 7.296a32.692 32.692 0 0 0-1.256 2.314c-.317.649-.757 1.104-1.442 1.37-.382.148-.737.405-1.058.669-1.476 1.218-3.15 2.091-4.941 2.705-1.189.408-2.414.767-3.706.751-.385-.004-.771.114-1.157.115s-.772-.124-1.154-.108c-1.666.071-3.21-.441-4.742-.979-1.673-.586-3.15-1.513-4.539-2.617-1.961-1.558-3.358-3.52-4.385-5.765-.554-1.211-1.004-2.46-1.132-3.804-.021-.223-.095-.444-.161-.66-.466-1.507-.198-2.985.09-4.486.22-1.148.447-2.283.877-3.373 1.135-2.884 2.938-5.245 5.435-7.1C19.191 1.563 21.521.614 24.054.206c2.907-.468 5.744-.131 8.497.963 1.374.548 2.67 1.241 3.802 2.159 1.056.856 2.008 1.858 2.908 2.883.815.928 1.394 2.034 1.911 3.162.807 1.762 1.333 3.586 1.28 5.546-.012.362-.003.721-.003 1.08zm-1.115-3.57c-.081-.616-.131-1.329-.281-2.022-.429-1.992-1.583-3.548-3.121-4.818-.873-.722-1.825-1.349-2.763-1.988-.318-.216-.687-.415-1.058-.481-.954-.176-1.919-.34-2.886-.389-1.678-.085-3.186-.518-4.453-1.685-.933-.858-1.948-.941-2.917-.186-1.099.855-2.349 1.357-3.624 1.854-.934.364-1.833.823-2.731 1.276-.75.379-1.187.971-1.177 1.867.006.503-.225.923-.69 1.201-.388.234-.762.492-1.117.773-.993.781-1.767 1.661-1.934 3.027-.132 1.08-.459 2.148-1.2 3.038a2.032 2.032 0 0 0-.442 1.069c-.068.807-.04 1.625-.02 2.437.006.217.1.451.211.642.256.452.534.891.835 1.315.727 1.01 1.359 2.046 1.505 3.329.141 1.244.742 2.257 1.759 3.03 1.473 1.121 2.892 2.311 4.387 3.402.803.588 1.663 1.102 2.723 1.221s2.098.408 3.048.941c.199.107.418.174.643.197 1.34.144 2.581-.187 3.758-.814.369-.197.749-.375 1.131-.546.92-.412 1.94-.682 2.741-1.255.891-.639 1.845-.923 2.868-1.101.442-.077.803-.259 1.091-.588.344-.39.661-.802 1.019-1.179.37-.389.637-.802.702-1.356.099-.849.463-1.599.924-2.319.781-1.217 1.225-2.562 1.456-3.992.061-.375.095-.692-.091-1.023-.538-.953-.318-2.035-.488-3.049-.086-.548.112-1.148.195-1.832l-.002.001zm-6.47-9.518c-.227-.251-.299-.364-.402-.434-.186-.128-.388-.233-.585-.344-1.687-.95-3.535-1.412-5.423-1.743-.379-.067-.778-.037-1.165-.022-.101.004-.221.102-.285.19-.029.04.037.18.092.248.42.5.968.878 1.585 1.092 1.066.383 2.186.594 3.319.623.48.013.958.104 1.436.169.407.058.814.127 1.428.223zM20.532 30.284c-1.132-.925-2.125-1.752-3.135-2.556a114.272 114.272 0 0 0-2.545-1.951c-.096-.072-.247-.07-.458-.124 1.03 1.728 4.469 4.353 6.138 4.632zM12.903 8.699c.683-.521 1.315-1.07 2.008-1.524.972-.633 1.344-1.421 1.115-2.773-.69.564-1.182 1.244-1.714 1.861-.562.651-.979 1.426-1.448 2.155-.036.059.022.175.039.281zm23.03 19.722c-.637-.044-1.279.069-1.678.412-.758.652-1.661.98-2.578 1.306-.482.171-.936.422-1.39.661-.063.033-.074.209-.061.313.004.035.174.092.244.069.824-.281 1.676-.507 2.456-.883.957-.459 1.856-1.04 2.772-1.579.096-.054.147-.181.236-.299zm-24.337-9.039c-.183.54-.147.838-.032 1.156.319.883.513 1.814 1.089 2.585.213.286.257.925.651.787.347-.12-.059-.627-.083-.968-.091-1.304-.777-2.355-1.625-3.561zm6.179-16.24.086.129c.476-.176.956-.343 1.428-.532 2.485-.949 3.496-1.371 4.502-1.801l-1.44.547a2.48 2.48 0 0 0 .568-.366c.049-.04.04-.175.025-.258-.008-.037-.105-.078-.161-.08a.971.971 0 0 0-.288.049l.007-.002c-1.383.393-2.688.974-3.936 1.68-.292.165-.529.422-.791.636zm24.296 14.005c.084-.097.149-.138.154-.183.135-1.421-.016-2.829-.21-4.233-.01-.071-.108-.172-.174-.18-.073-.01-.188.051-.233.117a.757.757 0 0 0-.133.352 13.522 13.522 0 0 0 .227 3.46c.044.23.235.432.369.668zm-30.809-3.92c.54-.206.621-.578.678-.915.141-.82.494-1.61.377-2.477-.564 1.035-1.065 2.083-1.055 3.392zm13.066 18.007c-1.21-.535-1.538-.591-2.616-.441.457.173.868.448 1.281.452.431.006.898.534 1.335-.011z"/><path d="M26.823 20.593c-.827-.015-1.396-.361-1.817-1.03-.392-.624-1.044-.947-1.642-1.332-.753-.484-1.366-1.03-1.54-2.012-.12-.665.02-1.243.29-1.769.227-.439.632-.847 1.057-1.108.461-.283.844-.55 1.056-1.073.241-.602.848-.638 1.386-.746.506-.102 1.021-.167 1.521-.295.683-.174 1.303-.12 1.802.411.386.412.836.708 1.338.958.522.26.695.564.531 1.107-.111.369-.004.62.134.914.15.321.305.647.408.986.344 1.128-.052 2.077-1.111 2.58-.656.311-1.159.726-1.322 1.456a.682.682 0 0 1-.509.537c-.524.153-1.055.28-1.583.417zm3.474-4.729c.017-1.987-1.49-3.576-3.45-3.579-1.759 0-3.528 1.189-3.596 3.469-.055 1.824 1.465 3.524 3.447 3.53 2.414.012 3.552-1.663 3.599-3.42zm-7.066 1.9c0-.255.024-.385-.004-.503-.26-1.079-.429-2.148.161-3.188.043-.075-.055-.229-.088-.346-.116.037-.255.045-.343.117-.974.799-1.409 2.718.274 3.92zm3.618-5.977c.408.149.64.255.884.321.898.237 1.664.664 2.197 1.451.105.155.241.385.442.209.107-.094.142-.382.08-.526-.083-.191-.272-.43-.454-.468-.493-.103-.763-.46-1.085-.771-.541-.519-1.144-.682-2.065-.215zm-.055 7.822-.012-.075c-.259 0-.52-.022-.774.009-.131.016-.25.127-.374.195.113.1.211.257.341.29.696.175 1.397.213 2.083-.055.117-.046.248-.106.321-.201.065-.08.086-.223.073-.331-.005-.04-.168-.101-.248-.088-.471.074-.94.167-1.409.254l-.002.001zm3.558-2.038c.482-.089.697-.361.725-.779a7.158 7.158 0 0 0-.015-1.056c-.008-.093-.137-.175-.21-.263-.107.101-.325.238-.305.299.196.609-.213 1.155-.194 1.797v.001zm4.409 2.752c-.028.014-.139.107-.26.12-.11.013-.271-.024-.339-.101a17.095 17.095 0 0 1-.982-1.199c-.08-.109-.113-.401-.067-.426.151-.083.445-.17.511-.098.388.427.729.897 1.079 1.357.034.046.024.125.059.346zm-16.41 3.345c.179.014.533.025.878.084.086.015.201.183.201.283s-.099.274-.185.295c-.671.166-1.338.207-1.932-.241a.305.305 0 0 1-.095-.246c.013-.067.117-.16.187-.165.257-.022.516-.01.946-.01zM39.372 9.562l.254.139c-.072.129-.116.336-.221.373a10.45 10.45 0 0 1-1.483.423c-.145.028-.356-.114-.489-.231-.154-.136-.062-.431.132-.461.571-.088 1.147-.155 1.807-.242zM22.297 26.541c.268.125.493.16.602.294.3.372.575.764.822 1.174.12.195.01.406-.192.462-.111.031-.313-.06-.395-.16a12.819 12.819 0 0 1-.909-1.238c-.064-.102.035-.308.071-.532zm10.528-15.523c.017-.114 0-.244.053-.294.072-.066.227-.12.302-.085.102.049.167.182.237.286.194.291.387.584.572.883.083.134.194.276.201.42a.563.563 0 0 1-.174.398c-.056.051-.286.018-.343-.053-.371-.471-.816-.913-.849-1.554zM33.98 6.01c-.08.481-.112.836-.206 1.175a.975.975 0 0 1-.321.465c-.106.086-.292.073-.442.105-.012-.14-.056-.286-.031-.419.078-.41.183-.815.277-1.222.007-.032.005-.065.014-.096.074-.245.234-.432.49-.331.129.051.189.276.219.323zm-6.926 3.131c.226.028.518.043.796.111.095.023.236.194.219.268-.029.132-.139.306-.255.345a.974.974 0 0 1-.566.003c-.321-.102-.621-.136-.941-.002-.21.088-.408-.004-.464-.214-.075-.281.136-.417.374-.456.253-.042.515-.035.837-.054zm5.01 13.829c-.091.398-.161.748-.259 1.089-.019.067-.161.157-.22.142-.107-.026-.257-.11-.279-.198a1.307 1.307 0 0 1-.016-.577c.076-.35.15-.682.008-1.039-.067-.171-.048-.444.212-.444.14 0 .342.173.405.316.102.229.109.499.149.71zm-3.953-.102c-.052.093-.078.204-.146.251-.423.291-.847.584-1.292.838-.114.065-.313.025-.458-.018-.212-.063-.257-.342-.08-.455.487-.312.977-.621 1.478-.908.08-.046.241.004.345.055.07.035.1.149.154.237zM22.723 4.155c.069.04.198.075.215.139.168.618.33 1.238.463 1.864.037.174-.193.27-.347.166-.486-.327-.788-1.536-.505-2.042.029-.05.101-.075.174-.128zm6.001 1.756c-.146-.097-.304-.147-.325-.231-.023-.091.053-.247.135-.321a13.57 13.57 0 0 1 1.117-.897c.131-.092.402-.157.502-.085.237.166.112.401-.053.573-.222.231-.442.475-.697.662-.196.141-.447.201-.678.299zm-9.235 3.266-.355.335c-.101-.11-.251-.201-.294-.331a23.988 23.988 0 0 1-.448-1.555c-.018-.072.04-.219.1-.243.098-.04.26-.056.335 0 .147.109.316.254.364.418.127.425.193.87.298 1.377zm-3.887 8.58c-.326.596-.573 1.207-1.18 1.533-.102.055-.328-.015-.437-.102-.186-.147 0-.27.09-.395.285-.392.548-.8.85-1.177.078-.097.276-.144.411-.131.092.008.166.164.266.272zm3.68.05c.17.098.293.128.316.192.038.106.057.272 0 .346-.093.117-.253.184-.39.263-.356.204-.708.42-1.078.594a.49.49 0 0 1-.418-.035c-.207-.147-.134-.383.032-.487.509-.318 1.043-.596 1.538-.873zm18.416-2.701c-.131.295-.315.74-.533 1.167-.034.066-.245.102-.335.063-.083-.037-.174-.205-.157-.295.088-.475.184-.952.332-1.411.045-.14.248-.267.405-.314.058-.017.209.201.281.334.041.075.007.191.007.457zM15.5 11.562c.576.517.508 1.218.572 1.866.012.12-.138.292-.258.379-.063.046-.317-.028-.323-.07a36.078 36.078 0 0 1-.216-1.971c-.004-.056.131-.125.226-.205zM28.97 27.56c.097.026.192.057.285.093.346.16.695.317 1.032.493.161.083.321.188.437.321.133.154-.019.451-.205.41-.628-.136-1.242-.325-1.712-.794-.07-.069-.068-.243-.045-.358.013-.065.135-.11.208-.165zm-7.646-15.809c.033.104.147.265.107.366a23.915 23.915 0 0 1-.704 1.578c-.031.064-.161.12-.238.11-.067-.008-.161-.103-.178-.175-.132-.579.284-1.615.747-1.876.048-.027.124-.004.266-.004zm17.964 8.788c-.072-.046-.223-.102-.301-.209-.031-.043.07-.239.157-.301.387-.281.781-.549 1.192-.789.111-.065.341-.069.423.003.075.067.086.321.018.414-.345.48-.779.846-1.49.883zm-2.387 4.131c-.298-.031-.428-.034-.552-.062-.053-.012-.131-.074-.132-.114a.425.425 0 0 1 .068-.259.49.49 0 0 1 .241-.15c.46-.138.919-.276 1.386-.388.101-.024.314.043.328.1.031.137-.006.303-.06.441-.029.073-.142.134-.23.16-.399.11-.8.207-1.049.272zm-13.837-3.315c-.033.14-.086.45-.19.742-.026.073-.227.142-.319.116s-.201-.178-.198-.274c.01-.541.037-1.083.092-1.622.012-.118.161-.221.247-.331.103.109.27.205.296.329.058.279.046.573.073 1.039zM44.599 4.422c0-1.146.278-2.016.833-2.608.561-.598 1.28-.898 2.157-.898s1.574.258 2.091.775c.524.516.785 1.342.785 2.475s-.277 1.99-.832 2.57c-.555.579-1.296.869-2.223.869-.801 0-1.457-.23-1.968-.69-.265-.239-.473-.57-.625-.992-.145-.428-.218-.929-.218-1.502zm2.961-3.41c-.637 0-1.16.283-1.57.85-.404.567-.606 1.398-.606 2.494s.192 1.896.577 2.4c.385.504.896.756 1.533.756.643 0 1.167-.283 1.571-.85.41-.573.615-1.401.615-2.485 0-1.09-.195-1.89-.587-2.4a1.827 1.827 0 0 0-1.533-.765zm4.541 6.557h-.785V.955h.785v3.042h3.075V.955h.785v6.614h-.785V4.092h-3.075v3.477zm7.896 0h-.123l.823-6.614h.312l1.987 6.113L64.973.955h.312l.823 6.614h-.785l-.653-5.291-1.713 5.291h-.596L60.63 2.344l-.634 5.225zM71.35.955c.12.12.18.274.18.463 0 .157-.035.318-.104.482l-1.694 3.43v2.239h-.785V5.538L67.055.956h.804l1.807 4.261 1.646-3.316c.069-.157.104-.321.104-.491s-.047-.302-.142-.397l.076-.057zM1.334 9.306c.489-.022.967-.033 1.434-.033.478 0 .978.05 1.5.15a5.34 5.34 0 0 1 1.567.566 4.08 4.08 0 0 1 1.317 1.049c.367.422.661.982.884 1.682s.333 1.548.333 2.547c0 .999-.167 1.898-.5 2.697-.322.788-.767 1.393-1.334 1.815-1.1.821-2.429 1.232-3.985 1.232-.545 0-1.117-.022-1.717-.067h-.834V9.306h1.334zm.05 11.505c.233.022.528.033.884.033s.622-.006.8-.017c.178-.011.422-.055.734-.133.311-.089.6-.205.867-.35s.545-.355.834-.633c.3-.289.556-.627.767-1.016.478-.91.717-2.098.717-3.563 0-1.043-.128-1.942-.383-2.697-.256-.766-.55-1.332-.884-1.698a3.443 3.443 0 0 0-1.184-.866c-.467-.222-.839-.35-1.117-.383s-.6-.05-.967-.05-.722.017-1.067.05v11.321zm43.485.133h-.216V9.29h.567l6.936 10.772V9.29h.216v11.654h-1.217l-6.286-9.656v9.656zM62.638 9.29h.217v6.66c0 1.743-.344 3.025-1.034 3.846-.689.81-1.589 1.215-2.701 1.215-.7 0-1.295-.061-1.784-.183a3.843 3.843 0 0 1-1.384-.716c-.889-.688-1.333-2.076-1.333-4.162V9.29h1.384v6.643c0 2.02.306 3.369.917 4.046.311.333.634.561.967.683.345.122.756.183 1.234.183 1.067 0 1.917-.388 2.551-1.165.645-.788.967-2.037.967-3.746V9.291zm5.904 11.654h-1.384V9.456h-2.884V9.29h7.169v.166h-2.901v11.488z"/></symbol><symbol id="icon-donut" viewBox="0 0 32 32"><path d="M32 16v.781c.094 2.656-.75 5.031-2.063 7.281a41.922 41.922 0 0 0-1.281 2.313 2.607 2.607 0 0 1-1.42 1.369l-.018.006c-.375.156-.719.406-1.063.688a15.559 15.559 0 0 1-8.569 3.434l-.055.004c-.406 0-.781.125-1.156.125-.406 0-.781-.125-1.156-.094-1.688.063-3.219-.469-4.75-1-4.023-1.498-7.194-4.486-8.898-8.276l-.04-.099C1 21.313.531 20.063.406 18.719c0-.219-.094-.438-.156-.656-.469-1.5-.188-2.969.094-4.469C1.517 5.847 8.129-.021 16.111-.021c3.709 0 7.122 1.267 9.83 3.391l-.035-.026c1.063.844 2 1.844 2.906 2.875.813.906 1.375 2.031 1.906 3.156.813 1.75 1.344 3.594 1.281 5.531V16zm-1.125-3.562c-.063-.625-.125-1.344-.281-2.031-.438-2-1.594-3.563-3.125-4.813-.875-.719-1.813-1.344-2.75-2-.313-.219-.688-.406-1.063-.469-.969-.188-1.906-.344-2.875-.406-1.688-.063-3.188-.5-4.469-1.688-.938-.844-1.938-.938-2.906-.188-1.094.875-2.344 1.375-3.625 1.875-.938.344-1.844.813-2.75 1.281-.75.375-1.188.969-1.156 1.844 0 .531-.219.938-.688 1.219-.406.219-.781.5-1.125.781-1 .781-1.781 1.656-1.938 3-.125 1.094-.469 2.156-1.188 3.063-.25.281-.406.656-.469 1.063-.063.813-.031 1.625 0 2.438 0 .219.094.438.219.625.25.469.531.906.813 1.313.75 1.031 1.375 2.063 1.5 3.344.156 1.25.75 2.25 1.781 3.031 1.469 1.125 2.875 2.313 4.375 3.406.813.594 1.656 1.094 2.719 1.219s2.094.406 3.063.938c.188.094.406.188.625.188 1.344.156 2.594-.188 3.781-.813l1.125-.531c.906-.406 1.938-.688 2.75-1.25.875-.656 1.844-.938 2.844-1.125a1.77 1.77 0 0 0 1.094-.563c.344-.406.656-.813 1.031-1.188.375-.406.625-.813.688-1.375.094-.844.469-1.594.938-2.313.781-1.219 1.219-2.563 1.438-3.969.063-.375.094-.719-.063-1.031-.563-.969-.344-2.031-.5-3.063-.094-.531.094-1.125.188-1.813zm-6.469-9.532c-.219-.25-.281-.375-.406-.438l-.594-.344C21.75 1.186 19.875.718 18 .374c-.375-.063-.781-.031-1.156 0-.125 0-.219.094-.281.188-.031.031.031.188.094.25.406.5.938.875 1.563 1.094 1.063.375 2.188.594 3.313.625.5 0 .969.094 1.438.156l1.438.219zM10.063 30.281l-3.125-2.563-2.531-1.938c-.094-.063-.25-.063-.469-.125 1.031 1.719 4.469 4.344 6.125 4.625zM2.438 8.688c.688-.5 1.313-1.063 2.031-1.5.969-.656 1.344-1.438 1.094-2.781-.688.563-1.188 1.25-1.719 1.844-.563.656-.969 1.438-1.438 2.156-.031.063.031.188.031.281zm23.031 19.718c-.625-.031-1.281.094-1.656.438-.781.656-1.688.969-2.594 1.281-.469.188-.938.438-1.375.688-.063.031-.094.188-.063.313 0 .031.156.094.219.063.844-.281 1.688-.5 2.469-.875.969-.469 1.844-1.063 2.781-1.594.094-.063.125-.188.219-.313zM1.125 19.375c-.156.531-.125.844-.031 1.156.344.875.531 1.813 1.094 2.594.219.281.281.938.656.781.344-.125-.063-.625-.094-.969-.063-1.313-.75-2.344-1.625-3.563zM7.313 3.156l.094.125 1.438-.531 3.063-1.281c.188-.063.375-.219.563-.344l.031-.25c-.031-.063-.125-.094-.188-.094l-.281.031c-1.375.406-2.688 1-3.938 1.688-.281.156-.5.438-.781.656zm24.312 14 .156-.188c.125-1.438-.031-2.844-.219-4.25 0-.063-.125-.156-.188-.156-.063-.031-.188.031-.219.094a.599.599 0 0 0-.125.375c-.094 1.156 0 2.313.219 3.438.031.25.219.438.375.688zM.813 13.219c.531-.188.625-.563.656-.906.156-.813.5-1.625.406-2.469-.594 1.031-1.094 2.063-1.063 3.375zm13.062 18c-1.219-.531-1.531-.563-2.625-.438.469.188.875.469 1.281.469.438 0 .906.531 1.344-.031z"/><path d="M16.375 20.594c-.844 0-1.406-.375-1.813-1.031-.406-.625-1.063-.938-1.656-1.344-.75-.469-1.375-1.031-1.531-2-.125-.656 0-1.25.281-1.781.219-.438.625-.844 1.063-1.094.469-.281.844-.563 1.063-1.063.219-.625.844-.656 1.375-.75l1.531-.313c.688-.156 1.281-.125 1.781.406.406.438.844.719 1.344.969.531.25.688.563.531 1.125-.094.344 0 .594.125.906l.438.969c.344 1.125-.063 2.094-1.125 2.594-.656.313-1.156.719-1.313 1.438-.063.313-.25.469-.531.563l-1.563.406zm3.469-4.719c0-2-1.5-3.594-3.469-3.594-1.75 0-3.5 1.188-3.594 3.469-.031 1.844 1.469 3.531 3.469 3.531 2.406 0 3.531-1.656 3.594-3.406zm-7.063 1.875v-.5c-.281-1.063-.438-2.125.156-3.188.031-.063-.063-.219-.094-.344l-.344.125a2.438 2.438 0 0 0 .272 3.901l.01.006zm3.625-5.969.875.313c.906.25 1.656.688 2.188 1.469.094.156.25.375.438.219.125-.094.156-.406.094-.531-.094-.188-.281-.438-.469-.469-.469-.125-.75-.469-1.063-.781-.563-.531-1.156-.688-2.063-.219zm-.062 7.844-.031-.094h-.75c-.156.031-.25.125-.375.219.094.094.188.25.344.281.688.188 1.375.219 2.063-.063a.743.743 0 0 0 .344-.188c.063-.094.063-.219.063-.344l-.25-.094-1.406.25v.031zm3.562-2.062c.469-.094.688-.344.719-.781.031-.344 0-.688-.031-1.031 0-.094-.125-.188-.188-.281-.125.094-.344.25-.313.313.188.594-.219 1.156-.188 1.781zm4.407 2.75a.472.472 0 0 1-.281.125c-.094.031-.25-.031-.313-.094l-1-1.188c-.063-.125-.094-.406-.063-.438.156-.094.438-.156.5-.094.406.406.75.906 1.094 1.344l.063.344zM7.906 23.656l.875.094c.063.031.188.188.188.281s-.094.281-.188.313c-.656.156-1.344.188-1.938-.25a.31.31 0 0 1-.095-.224l.001-.027v.001c.031-.063.125-.156.188-.156l.969-.031zm21-14.093.25.125c-.063.156-.094.344-.219.375a7.935 7.935 0 0 1-1.469.438c-.156.031-.344-.125-.5-.25s-.063-.406.125-.438l1.813-.25zM11.844 26.531c.25.125.5.156.594.313.313.375.594.75.813 1.156.125.219.031.406-.188.469-.094.031-.313-.063-.375-.156a8.44 8.44 0 0 1-.906-1.25c-.063-.094.031-.313.063-.531zm10.531-15.5.031-.313c.094-.063.25-.125.313-.094.094.063.156.188.25.313l.563.875c.094.125.188.281.188.406.031.156-.063.313-.156.406-.063.063-.281.031-.344-.063-.375-.469-.813-.906-.844-1.531zM23.531 6l-.219 1.188a.958.958 0 0 1-.313.469c-.125.094-.281.063-.438.094-.031-.125-.063-.281-.031-.406l.281-1.219v-.094c.063-.25.25-.438.5-.344.125.063.188.281.219.313zm-6.937 3.125.813.125c.094.031.219.188.219.281a.608.608 0 0 1-.281.344c-.156.031-.375.063-.563 0-.313-.125-.625-.156-.938 0-.188.063-.406 0-.469-.219-.063-.281.156-.438.375-.469l.844-.063zm5 13.844-.25 1.094c0 .063-.156.156-.219.125-.094 0-.25-.094-.281-.188-.031-.188-.063-.375 0-.563.063-.375.125-.688 0-1.063-.063-.156-.063-.438.219-.438.125 0 .344.188.406.313.094.25.094.5.125.719zm-3.938-.094-.156.25-1.281.844c-.125.063-.313 0-.469-.031-.219-.063-.25-.344-.063-.469l1.469-.906c.094-.031.25.031.344.063.063.031.094.156.156.25zM12.281 4.156c.063.031.188.063.188.125l.469 1.875c.031.188-.188.281-.344.156-.469-.313-.781-1.531-.5-2.031.031-.063.094-.063.188-.125zm6 1.75c-.156-.094-.313-.156-.344-.219-.031-.094.063-.25.125-.344l1.125-.875c.125-.094.406-.156.5-.094.25.156.125.406-.031.563-.25.25-.469.5-.719.688-.188.125-.438.188-.656.281zm-9.25 3.282-.344.313c-.125-.094-.25-.188-.313-.313l-.438-1.563c-.031-.063.031-.219.094-.25.094-.031.25-.063.344 0 .156.125.313.25.375.438.125.406.188.844.281 1.375zM5.156 17.75c-.344.594-.594 1.219-1.188 1.531-.094.063-.344 0-.438-.094-.188-.156 0-.281.094-.406.281-.375.531-.781.844-1.156a.492.492 0 0 1 .406-.125c.094 0 .156.156.281.25zm3.657.063c.188.094.313.125.344.188v.344c-.094.125-.281.188-.406.25a8.994 8.994 0 0 1-1.063.594c-.125.063-.344.063-.438-.031-.188-.125-.125-.375.031-.469l1.531-.875zm18.437-2.719-.531 1.188c-.031.063-.25.094-.344.063s-.188-.219-.156-.313c.094-.469.188-.938.344-1.406.031-.125.219-.25.375-.313.063 0 .219.219.281.344.063.063.031.188.031.438zM5.031 11.563c.594.531.531 1.219.594 1.875 0 .125-.156.281-.281.375-.063.031-.313-.031-.313-.063l-.219-1.969c0-.063.125-.125.219-.219zm13.469 16 .313.094 1.031.5c.156.063.313.188.438.313.125.156-.031.438-.219.406-.625-.125-1.25-.313-1.719-.781-.063-.094-.063-.25-.031-.375 0-.063.125-.094.188-.156zM10.875 11.75c.031.094.125.281.094.375l-.688 1.563c-.031.063-.156.125-.25.125l-.188-.188c-.125-.563.281-1.625.75-1.875h.281zm17.969 8.781c-.094-.031-.25-.094-.313-.188-.031-.063.063-.25.156-.313a9.608 9.608 0 0 1 1.188-.781c.125-.063.344-.094.438 0 .063.063.063.313 0 .406-.344.469-.781.844-1.469.875zm-2.406 4.125-.531-.063c-.063 0-.156-.063-.156-.094 0-.094.031-.188.094-.25a.36.36 0 0 1 .219-.156l1.406-.406.313.094a.818.818 0 0 1-.063.469c-.031.063-.125.125-.219.156l-1.063.25zm-13.844-3.312c-.031.156-.063.469-.188.75 0 .063-.219.156-.313.125s-.188-.188-.188-.281c0-.531.031-1.094.094-1.625 0-.125.156-.219.25-.313.094.094.25.188.281.313.063.281.063.563.063 1.031z"/></symbol></defs></svg>