<?xml version="1.0" standalone="no"?>
<!DOCTYPE svg PUBLIC "-//W3C//DTD SVG 20010904//EN"
 "http://www.w3.org/TR/2001/REC-SVG-20010904/DTD/svg10.dtd">
<svg version="1.0" xmlns="http://www.w3.org/2000/svg"
 width="180.000000pt" height="180.000000pt" viewBox="0 0 180.000000 180.000000"
 preserveAspectRatio="xMidYMid meet">
<metadata>
Created by potrace 1.14, written by Peter Selinger 2001-2017
</metadata>
<g transform="translate(0.000000,180.000000) scale(0.100000,-0.100000)"
fill="#000000" stroke="none">
<path d="M887 1784 c-1 -1 -35 -5 -76 -8 -211 -20 -442 -150 -575 -325 -88
-116 -135 -219 -167 -368 -33 -155 -34 -213 -5 -346 73 -345 286 -582 611
-683 75 -23 111 -28 212 -29 75 -2 149 3 189 11 121 26 268 95 359 169 22 17
54 39 70 48 39 20 56 40 96 112 140 258 152 298 156 515 3 191 -6 245 -68 387
-106 241 -333 432 -587 493 -45 10 -209 29 -215 24z m25 -59 c75 -61 150 -88
278 -99 101 -8 151 -25 228 -79 103 -71 191 -161 225 -229 30 -60 56 -174 51
-223 -9 -102 -3 -190 18 -258 17 -57 -3 -143 -62 -262 -27 -55 -53 -116 -56
-135 -9 -46 -20 -66 -67 -122 -43 -51 -46 -53 -127 -74 -30 -8 -73 -27 -94
-41 -38 -24 -182 -92 -290 -135 -65 -25 -139 -25 -193 2 -24 11 -78 27 -120
36 -43 9 -97 27 -121 41 -45 26 -298 225 -320 252 -24 31 -50 87 -56 123 -10
64 -32 114 -86 200 l-54 83 1 81 c1 49 6 92 14 107 8 13 24 42 36 64 12 21 28
72 36 112 19 90 50 137 124 193 69 51 71 54 79 98 3 19 10 45 16 57 11 22 112
81 197 116 80 33 126 56 181 91 71 47 105 47 162 1z m185 15 c90 -21 194 -65
233 -98 l25 -21 -30 5 c-16 2 -39 6 -50 8 -11 3 -51 7 -90 11 -102 9 -195 39
-228 73 -15 16 -24 31 -20 35 12 12 77 7 160 -13z m-387 -9 c0 -5 -6 -13 -12
-19 -23 -18 -237 -104 -250 -100 -17 6 68 56 161 95 81 33 101 38 101 24z
m-370 -236 c0 -52 -16 -76 -88 -130 -88 -66 -90 -66 -57 -9 24 42 47 73 120
161 17 21 25 14 25 -22z m-210 -344 c-14 -64 -27 -94 -39 -86 -11 6 1 68 24
124 23 56 31 36 15 -38z m1617 -198 c5 -86 3 -105 -8 -101 -24 8 -44 173 -27
219 9 22 10 23 19 6 6 -10 13 -66 16 -124z m-1608 -296 c33 -58 66 -170 55
-188 -8 -14 -50 59 -75 130 -17 49 -25 111 -15 111 3 0 18 -24 35 -53z m301
-426 c142 -116 141 -115 110 -106 -64 17 -290 200 -290 233 0 17 31 -5 180
-127z m957 -24 c-2 -6 -16 -17 -33 -26 -16 -9 -49 -29 -74 -43 -60 -36 -178
-80 -184 -69 -8 12 8 22 107 65 48 22 90 43 93 48 14 23 98 45 91 25z m-635
-138 c33 -18 12 -22 -41 -9 -65 15 -81 36 -21 26 23 -4 51 -11 62 -17z"/>
<path d="M687 1535 c-7 -18 -1 -53 14 -82 27 -50 42 -16 22 50 -14 48 -26 59
-36 32z"/>
<path d="M1032 1506 c-32 -30 -35 -35 -19 -42 25 -9 60 11 81 47 17 28 17 29
-4 29 -11 0 -37 -15 -58 -34z"/>
<path d="M1260 1429 c-6 -22 -10 -49 -8 -60 3 -18 5 -18 21 -7 19 14 37 73 30
96 -9 26 -33 10 -43 -29z"/>
<path d="M470 1363 c0 -30 20 -92 31 -99 19 -11 27 17 17 55 -15 55 -48 85
-48 44z"/>
<path d="M876 1267 c-26 -19 -7 -30 51 -30 42 0 74 15 60 29 -14 14 -92 15
-111 1z"/>
<path d="M1535 1248 c-50 -11 -63 -23 -38 -37 24 -12 85 2 103 24 7 8 11 15 9
16 -25 5 -40 4 -74 -3z"/>
<path d="M1244 1186 c-7 -19 24 -84 46 -96 31 -17 31 15 0 64 -32 50 -38 54
-46 32z"/>
<path d="M939 1166 c-2 -2 -17 -6 -34 -9 -99 -16 -106 -19 -130 -57 -13 -21
-38 -46 -54 -56 -39 -23 -71 -82 -71 -130 0 -50 28 -96 82 -133 48 -34 73 -56
105 -94 30 -35 64 -42 128 -28 49 11 56 16 74 54 13 27 35 50 61 65 70 40 87
111 46 194 -10 19 -14 43 -11 59 5 20 0 32 -16 48 -13 12 -26 21 -30 21 -4 0
-26 16 -49 35 -37 31 -86 46 -101 31z m69 -30 c15 -8 36 -23 46 -35 11 -12 25
-21 32 -21 17 0 35 -33 25 -48 -5 -8 -18 -1 -40 22 -19 19 -45 39 -60 45 -14
6 -39 16 -56 22 -28 10 -28 12 -10 19 28 12 33 12 63 -4z m-6 -52 c113 -58
137 -228 45 -315 -48 -45 -142 -62 -201 -34 -73 35 -111 91 -114 170 -7 143
145 243 270 179z m-270 -70 c4 -3 0 -20 -7 -38 -13 -31 -13 -94 0 -135 10 -32
-18 -26 -38 8 -23 39 -21 98 3 139 19 31 30 38 42 26z m418 -125 c0 -34 -16
-69 -31 -69 -6 0 -7 13 -4 33 3 17 8 41 10 52 2 11 4 21 4 23 1 2 6 0 11 -3 6
-3 10 -20 10 -36z m-153 -196 c-20 -20 -76 -27 -111 -13 -39 14 -29 20 40 26
31 2 59 6 62 9 3 2 9 2 14 -1 6 -4 4 -13 -5 -21z"/>
<path d="M304 1088 c3 -29 6 -56 6 -60 0 -5 7 -8 15 -8 18 0 21 70 5 101 -20
37 -33 21 -26 -33z"/>
<path d="M591 1109 c-23 -38 -29 -93 -8 -87 20 7 53 96 40 109 -9 9 -17 3 -32
-22z"/>
<path d="M1461 953 c-14 -51 -14 -73 2 -73 13 0 41 60 42 90 0 8 -8 16 -17 18
-12 2 -20 -7 -27 -35z"/>
<path d="M258 781 c-32 -44 -35 -61 -12 -61 25 0 80 72 69 90 -12 19 -30 9
-57 -29z"/>
<path d="M475 780 c-52 -33 -60 -42 -41 -52 21 -12 96 31 96 55 0 22 -17 21
-55 -3z"/>
<path d="M1260 743 c0 -27 62 -95 78 -85 9 6 5 20 -19 55 -31 48 -59 61 -59
30z"/>
<path d="M1611 699 c-42 -30 -46 -49 -12 -49 23 0 71 37 71 55 0 26 -18 25
-59 -6z"/>
<path d="M686 664 c-3 -9 -6 -36 -6 -60 0 -47 23 -63 35 -25 15 50 -12 130
-29 85z"/>
<path d="M1160 510 c0 -46 3 -60 15 -60 17 0 30 59 21 95 -4 14 -13 25 -21 25
-12 0 -15 -14 -15 -60z"/>
<path d="M918 513 c-39 -26 -50 -53 -23 -53 23 0 96 51 92 64 -6 20 -31 16
-69 -11z"/>
<path d="M406 472 c-10 -17 24 -36 64 -36 43 0 55 6 47 27 -6 16 -102 23 -111
9z"/>
<path d="M1468 464 c-51 -16 -61 -28 -28 -37 35 -9 90 11 90 33 0 23 0 23 -62
4z"/>
<path d="M675 309 c-7 -10 26 -69 48 -87 7 -6 19 -7 26 -3 10 7 7 17 -14 49
-28 43 -50 58 -60 41z"/>
<path d="M1020 246 c0 -14 74 -56 98 -56 27 0 9 31 -28 50 -46 23 -70 26 -70
6z"/>
</g>
</svg>
